# xmcd
#
# Track frame offsets: 
#        150
#        13320
#        23788
#        37666
#        49184
#        61905
#        75084
#        86704
#        99198
#        116823
#        130229
#        143751
#        153811
#        165164
#        174232
#        184065
#        194476
#        207579
#        225230
#        238599
#        249912
#
# Disc length: 3486 seconds
#
# Revision: 1
# Processed by: cddbd v1.5.2PL0 Copyright (c) Steve Scherf et al.
# Submitted via: ExactAudioCopy v0.99pb5
#
DISCID=fa0d9c15
DTITLE=Johnny Copeland - The Crazy Cajun Recordings
DYEAR=1998
DGENRE=Blues
TTITLE0=Gonna Make My Home Where I Hang My Hat
TTITLE1=Stealing
TTITLE2=Workin' Man's Blues
TTITLE3=Ain't Nobody's Business
TTITLE4=I've Gotta Go Home
TTITLE5=Hurt Hurt Hurt
TTITLE6=Somethin' You Got
TTITLE7=Slow Walk You Down
TTITLE8=Johnny Ace Medley
TTITLE9=Tribute To Sam Cooke
TTITLE10=Little Coquette
TTITLE11=Don't Tell Me
TTITLE12=Four Dried Beans
TTITLE13=Wake Up Little Susie
TTITLE14=The Hip Hop
TTITLE15=Stealing (Alternate Take)
TTITLE16=Hurt Hurt Hurt (Alternate Take)
TTITLE17=Johnny Ace Medley  (Alternate Take)
TTITLE18=Tribute To Sam Cooke (Alternate Take)
TTITLE19=Four Dried Beans (Alternate Take)
TTITLE20=Ain't Nobody's Business (Alternate Take)
EXTD=YEAR: 1998
EXTT0=
EXTT1=
EXTT2=
EXTT3=
EXTT4=
EXTT5=
EXTT6=
EXTT7=
EXTT8=
EXTT9=
EXTT10=
EXTT11=
EXTT12=
EXTT13=
EXTT14=
EXTT15=
EXTT16=
EXTT17=
EXTT18=
EXTT19=
EXTT20=
PLAYORDER=
